<svg viewBox="0 0 200 56" xmlns="http://www.w3.org/2000/svg"><g fill="#0074e7" transform="matrix(1.2484 0 0 1.2484 -39.451 -42.946)"><path d="m56.7 39.6c-4.5 0-7.5 3.2-7.5 8.2 0 4.9 2.9 8.2 7.5 8.2s7.5-3.2 7.5-8.2c0-4.9-2.9-8.2-7.5-8.2m0 13.2c-2.7 0-3.5-2.5-3.5-4.9 0-2.5.8-5 3.5-5s3.5 2.5 3.5 5c0 2.4-.8 4.9-3.5 4.9"/><path d="m69.2 55.6h4.6l5-15.5h-4.3l-3 11.3-3.1-11.3h-4.3z"/><path d="m40.7 74.4c5.3 0 7.2-3.5 7.2-7.6v-11.2h-1.8v10.8c0 4.6-1.9 6.4-5.4 6.4s-5.4-1.8-5.4-6.4v-10.8h-1.8v11.3c0 4 1.9 7.5 7.2 7.5"/><path d="m65.4 59.6h1.8v14.4h-1.8z"/><path d="m74.7 74h2l5.6-14.4h-2l-4.6 12.6-4.6-12.6h-2z"/><path d="m118 59.6h1.8v14.4h-1.8z"/><path d="m98.6 55.6v-8.3c0-3.1.9-4.4 3.1-4.4 1.9 0 2.6 1.3 2.6 3.8v8.9h4v-9.6c0-3.8-1.1-6.4-5.3-6.4-1.7 0-3.6.9-4.5 2.6v-2.2h-3.8v15.5h3.9"/><path d="m114.8 36.2-4 1.4v2.5h-1.5v2.8h1.5v8c0 3.8 2.1 4.8 4.6 4.8.7 0 1.5 0 2.1-.1v-3.3c-.4.1-.7.1-1 .1-1.3 0-1.7-.4-1.7-3.3v-6.2h2.7v-2.9h-2.7z"/><path d="m52.4 74v-8.4c.1-2.8 1.7-4.9 4.5-4.9 2.9 0 3.7 1.9 3.7 4.3v9h1.8v-9.3c0-3.4-1.5-5.5-5.3-5.5-2 0-4.1 1.2-4.8 3v-2.5h-1.7v14.3z"/><path d="m99.8 74v-7.7c0-3 2-5.4 5.4-5.4v-1.8c-2.8 0-4.6 1.5-5.5 3.8v-3.4h-1.7v14.5z"/><path d="m107.8 63c0-1.9 1.6-2.4 3.6-2.4 1.1 0 2.5.3 3.5.9v-1.7c-1.3-.4-2.9-.6-3.7-.6-2.7 0-5.2 1-5.2 3.8 0 4.6 7.9 3.8 7.9 7.3 0 1.9-2 2.7-3.8 2.7-1.5 0-3-.4-4.1-.9v1.8c1.3.5 2.8.6 4.2.6 2.4 0 5.5-1.1 5.5-4.1 0-5.1-7.9-4.6-7.9-7.4"/><path d="m136.2 74c-1.4 3.3-3 5.1-5.1 5.4l-.6-1.4c2.2-.3 3.2-2.3 3.9-4h-1l-5.1-13h-3v8.8c0 1.5.1 2.8 1.3 2.8h1.4v1.4h-1.4c-2.3 0-3-1.5-3-4.2v-8.8h-1.9v-1.4h1.9v-3.2h1.8v3.2h4.4l5.1 13.2 5.3-13.2h2z"/><path d="m137.9 40.1-3.7 11.4-3.7-11.4h-3.3c-2.8 0-3.9 1.5-4.3 2.9v-2.9h-3.8v15.5h4v-7c0-3.4 1.4-5 4.2-5.1l4.1 12h1.6c-.6 1.8-1 2.8-1.9 3.4l1.3 3.4c2-.6 3.5-3.8 4.4-6.2l5.3-16.1h-4.2"/><path d="m45 49.2c-.6 1.9-1.9 3.1-4 3.1-3.8 0-5.2-3.3-5.2-6.7 0-3.5 1.4-6.8 5.2-6.8 2 0 3.7 1.4 4.1 3.2l3.8-1.3c-1.1-3.6-4.2-5.6-7.9-5.6-5.9 0-9.4 4.6-9.4 10.5 0 5.7 3.5 10.3 9.4 10.3 3.8 0 6.7-2.1 7.8-5.5z"/><path d="m89.1 51.2c-.5.8-1.6 1.6-3 1.6-2.2 0-3.4-1.2-3.6-3.9h10.5c.3-4.8-2.1-9.2-7-9.2-4.4 0-7.4 3.5-7.4 8.2 0 4.8 2.8 8.2 7.4 8.2 2.8 0 4.9-1.1 6.2-3.7zm-3.2-8.4c1.9 0 2.9 1.1 3.2 3.3h-6.5c0-1.2.8-3.3 3.3-3.3"/><path d="m93.3 70.2c-.7 1.6-2 2.7-4.2 2.7-3.4 0-4.7-3.1-4.8-5.7h11.1c.1-4-1.7-8.1-6.4-8.1-4.6 0-6.5 3.8-6.5 7.6 0 4.1 1.9 7.6 6.5 7.6 3 0 4.9-1.3 5.8-3.6zm-4.2-9.5c2.9 0 4.5 2.5 4.6 5.1h-9.4c.3-2.6 1.9-5.1 4.8-5.1"/><path d="m186.8 58.1c1-2.6.9-2.9 1.2-4.2 3.1-1.6 3.8-5.7 3.8-6.1-.1-1.2 0-.5-.1-.1-.3 1.2-1.5 2.5-2.5 3.3l-.9.6c.1-1.1 1.3-8.1-1.5-13.5.9 2.7-.3 5.7-1.9 7.7 0-.4-.7-7.4-3.8-10.9l-.3-.3c.5.7 1 5-1.4 9.1-1.3 1.9-3 3.5-4.5 5.2-1.4 1.8-2.1 3.5-1.4 6.5.2.8.6 2.1.9 2.4.2.1.2-.2.1-.4-.4-.8-.9-4 2.7-8.1 6.1-7 4.4-13.1 4.4-13.1 1 1 2.6 6.8 2.7 10-1.9 2.2-8.7 7-7.7 10.8.1.5.3 1 .6 1.4-.9 1.4-1.2 2.5-.7 3.9-1.4 1.1-2.8 2.6-3.5 4.3-1.1.4-2.1.9-3.1 1.8-.4-.4-.7-.8-1.1-1.1.3-.2 3-1.6 4.1-2.7 1-1.1 1.7-2.6 1.3-4.2-.7-2.9-7.2-6.7-5.8-8.3.7-.9 2.3-1.3 3.3-.7.1 0 .2.1.2.2.4-.6.9-2.2-1.6-2.2-.2-.5-.8-.7-1.4-.8-1.6-.1-3.2.6-3.8 2-.8 1.8 1.5 5.6 1.3 8.1.1 2.1-4.2 3.5-4.1.2 0-1.5 3.5-5.5.3-10.2-1.2-1.6-2.6-3.1-3.8-4.6-4.4-5.6-1.8-9.7-1.8-9.7-4.3 5.5-3.3 10-3.4 9.8-.3-.5-2.7-3.4-1.5-7.1 0 0-2.6 3.3-2.2 12.8-.5-.3-3.2-2.8-3.1-4.6 0 0-.6 4.1 3.2 7 .3 1.5.4 2.8.9 4.3-1.5-.5-3.8-2.3-4.6-3.9-.1-.3.5 3.7 5.1 6.1 3.8 6.4 8 4.7 8.8 3.9 1.2.5 3 3 3.1 3.4-2.5-.8-6.5-1.7-9.6-1.8-1.8-1.8-5.7-5.5-7.4-3.7-1.8 2.3 4.5 5 7.7 5.3.9.9 2.2 2.2 3 3.3-1 .2-1.2.3-2.5.8-4.7-3.8-5.4-1.2-5.4-1.2-.7 3.1 5.3 2.9 6 2.8 1.7 1.8 4.3 1.9 5.5 1.5 1.8 1.7 3.8 1.6 4.4 1.5 2 4.5 5.4 2.3 6.2.2 1.7.5 3.2-.2 4.5-1.2.9.3 3.3.7 5.6-1.1 5.8 1.1 6.4-2 6.2-2.6-.8-1.7-4.4.2-5.4 1.1-1-.4-1.5-.7-2.5-1 1-1.1 2.2-2.1 3.3-3 11.8-.8 9.9-10.3.5-1.6-2.7 0-6.9.3-9.8 1.1 0-.2 1.8-2.5 3.3-3.1 2.9 2.6 7.2 0 9.1-3.2 2.8-1.1 4.8-3.2 5.5-5.3l.1-.4c-.5 1.1-2.6 3.1-4.8 3.6m-40.1 2.8c1.2-1.7 5 2 6.2 3.4-.7-.1-7.2-1.6-6.2-3.4m2.8 8.1c.3-1.9 3.9.4 4.7 1.2-1.2.5-4.7.5-4.7-1.2m37.8 1.2c.2.7-2 2.3-4.8 1 2.8-2 4.7-1.9 4.8-1m3.3-7.9c1.2 1.6-4.1 3-6.3 3.1 0 0 4.7-4.6 6.3-3.1m-17.7 5.3c-.1.6-.1.9-.1 1.9-.6.2-1.2.3-1.7.7-.2-.5-.5-.9-.8-1.3 0 0 1.3-.9 2.6-1.3m-19.1-19.9c.9 1.5 7.8 6.7 6.3 9.7-1.7-2.3-5.8-4.6-6-4.8-.2-1.5-.3-3.2-.3-4.9m5.8 10.4c-.2.2-3.5 1.7-4.9-2.8 1.6.8 3.6 1.7 4.9 2.8m-8.4-18c-.1 1 0 3.3 2.2 7-.1 1.7 0 3.5.3 5.2-1.2-.6-2.2-1.3-3.3-1.9-.1-1.5.1-8.7.8-10.3m.9 19.1c1.7.6 7.2 3.1 7.7 3.4-.6.6-4.2 1.9-7.7-3.4m8.4 2.3c-2.1-1.6-5.6-3.2-9-4.5-.3-.8-.9-3.7-.9-4.2 1 .8 2.4 1.7 3.7 2.3 1.6 5.1 5 3.7 5.7 3.3.7.8.9 1.9.5 3.1m.3.3c.6-1.5.3-2.5-.4-3.9 2.2-2.8-.6-6.7-2.5-8.7-1-1.1-3.5-3.7-3.6-4-.5-4.6 1.8-8.6 1.9-8.9-1.1 2.4-1.7 5.7 4.6 13.4 1.1 1.4 2.6 2.9 2.6 4.9 0 1.8-1.5 3.3-1.3 4.9.2 1.1.8 2 1.9 2.2 1.2.2 2.3-.1 3-1 2.5-3.3-1.4-5.7-1.4-8.9 0-1.2.7-2 1.8-2.4.8-.2 1.8-.4 2.4.2-.2 0-.7.1-1.2.4-.1-.1-.2-.2-.3-.2-.2 0-.4.2-.4.4v.2c.1.1.2.3.4.2.1 0 .2-.1.2-.1.5-.3 1.1-.4 1.4-.4 2.4-.2 1.7 1.1 1.7 1.1s-1.8-1-3.6.7c-2.7 2.9 9.5 8.8.4 15.4-.4-.3-1.6-1.1-2.3-1.4-.1.1-.1.2-.2.2.8.4 1.6.9 2.2 1.4-.6.4-.8.7-1.3 1.1-.8-.8-1.8-1.5-2.9-2-.5-2-1.7-3.6-3.1-4.8m3.2 5.5c.9.2 1.8.9 2.5 1.4-.4.5-.6.8-.9 1.3-.5-.3-.8-.5-1.7-.8.2-.6.2-1.3.1-1.9m-9.1-1.2c1.9.2 7.4.6 8.6 1.1.2.6.2 1.3.1 1.9-1.9-.5-4.2-.5-6 0 .1 0-1.8-2.1-2.7-3m.9 5.4c.2 0 1.9-.4 2.7-.6.6.6 1.4 1.3 2 1.9 0 0-2.9.5-4.7-1.3m3.1-.7c1.4-.4 3-1 4.6-1 0 .2-1.3 2.2-2.7 2.9zm6.2 3.4c-1.4.2-3-.5-4-1.3 2.1-1.2 2.7-2.9 2.8-3.1.6.1 1.1.3 1.5.5-.4 1-.7 2.6-.3 3.9m.7-3.6c1.8 1.7.3 3-.2 3.4 0 0-.5-1.6.2-3.4m0 3.8c2.4-1.7 1.1-3.4.2-4.2.2-.4.4-.8.9-1.2.5.5.7 1.1.8 1.9h.3c0-.8-.3-1.6-.8-2.2.3-.3 1.1-1 1.4-1.1.4.4.8.7 1.2 1.2 0 0-1 1-1 2.2h.3c.1-.6.1-1 .9-1.8.3.4.6.8.7 1.3-.5.4-2.5 2.2 0 4.2-2.6 3.9-4.9-.1-4.9-.3m5.1-.1c-2-1.8-.2-3.3 0-3.4.3.9.3 2.4 0 3.4m.5.2c.4-1.2.4-2.6-.1-3.8.1 0 1.1-.4 1.6-.4.9 2.4 2.5 3.1 2.6 3.3-1.1.8-2.7 1.2-4.1.9m4.3-1.2s-1.7-.9-2.5-3.1c1.5.1 3.2.9 4.6 1.3zm5.2-.9c-1 .9-2.9 1.5-4.8 1l2.1-1.7c.9.3 1.8.5 2.7.7m1.2-5.3c-.9.9-2 1.9-3 2.8-1.9-.6-4-.8-6-.4 0-.7 0-1.2.2-1.9 2.8-.6 6-.4 8.8-.5m2.9-18.8c.5-.6 1.5-2.4 1.7-2.8.8-1.8.8-3.9.8-4.7.3.8.4 1.7.5 2.6.4 2.7.2 5.7-.2 8.4-1.1.7-2.3 1.2-3.4 1.7.3-1.7.6-3.3.6-5.2m-.4.5c-.1 1.8-.3 3.3-.8 4.9-.6.4-5.2 2.6-6.3 4.4-1.1-3.3 5.3-7 7.1-9.3m-1.4 7.6c-.4.9-1.1 2.1-2 2.6-.9.6-2.4.5-3.2-.1 1.4-1.1 3.5-1.9 5.2-2.5m-5.7 6.9c2.4-1 5.5-2.1 7.9-2.8-1 1.6-5.1 5-7.9 2.8m8.6-4.9c-2.2.7-4.5 1.4-6.7 2.4-.8.4-1.7.9-2.5 1.4-.3-1.2 0-2.4.9-3.1.7.5 1.5.7 2.4.6 1.8-.2 2.8-1.8 3.5-3.5 1.3-.6 2.6-1.2 3.8-2-.2 1.3-.7 2.7-1.2 4-.1.1 0 .1-.2.2"/></g></svg>