<svg xmlns="http://www.w3.org/2000/svg" width="205" height="70" viewBox="0 0 205 70">
  <g fill="#202329">
    <path d="M65.154 30.333c-.09-.538-.54-2.423-.628-2.782-.09-.447-.54-1.165-.63-1.614-.178-.18-.447-1.257-.537-1.615-.09-.448-.898-2.333-1.168-2.87-.27-.54-.36-1.168-.27-1.347-.09-.45-.986-1.885-.09-2.065l.09-.18c1.078 1.796 2.065 3.68 2.783 5.565.09.18.09.36.18.45v.178c.807 2.155 1.346 4.4 1.705 6.732-.36.09-1.257.18-1.436-.45zm-7.54-9.87c.18.627.72 1.704 1.078 2.063.45.36 1.346 1.436 1.705 1.705.36.27.718.63 1.436 1.796.63.897.988 2.692 1.167 3.32 0 .628.27.987.628 1.436.27.27.987.09.898-.27-.09-.358-.54-1.256-.63-2.153-.178-1.437-.896-2.065-1.075-2.514-.18-.36-.717-.987-.987-1.525-.27-.448-1.256-.897-1.705-1.435-.36-.36-.987-1.795-.987-2.154-.178-.358.36-.538.81-.268.358.36.806 1.705 1.076 2.243.18.36 1.256.628 1.166.18-.27-.36-.27-1.077-.628-1.616-.36-.54-.628-.898-.538-1.706.18-.897-.45-.897-.898-1.167-.36-.18-.09-.628 0-.987.18-.538-.628-.807-.987-1.077-.448-.18-1.973-.538-2.243-.718-.27-.27 0-.807.27-.897.538-.27 1.974.18 2.87.538-.806-.987-1.614-1.974-2.51-2.87-1.168-1.078-2.335-2.155-3.59-3.053-1.078.718-2.065 2.334-2.334 2.693-.18.36-.18.807-.45 1.346-.268.538-1.256 2.96-1.435 3.5-.27.628-.628 1.256-.897 1.525-.27.27.27.63.36.898.18.27-.09.538-.36.808-.27.18-.09.628-.538.987-.36.36.09.628.718.628.36-.27.718-.45.897-1.077.09-.268.63-.268.718-.537.18-.18.18-.63.54-1.077.358-.36.537-.898.268-.988-.27-.18-.538 0-.628-.27-.18-.358.628-.986.718-1.255 0-.718 1.166-2.782 1.346-3.23.09-.54.627-.898.896-1.078.18-.09.718-.09 1.077-.36.45-.268.898.27 1.167.63.27.448 1.077.448 1.167.897.27.538-.54.718-.988.807-.54.27-1.077 1.435-1.077 1.525.18.18 1.166 1.167 1.615 1.436.18.27.718.27.987.09.27-.09.898.27.987.54.18.807-.718.807-.987.807-.27 0-.987-.54-1.436-.628-.36-.18-.54-.27-.988-.18-.538.18-.27.538-.18.807.18.27.18.808 0 .987-.09.27-.538.27-.538.808.09.36.27.628.27.897 0 .268.27.627-.27 1.166-.18.27-.27.897-.18 1.256.09.54.63.808.898 1.167.36.537.18 1.435.808 1.794.36.27.718 0 .628-.54-.18-.447-.45-1.255 0-1.524.18-.09.628.36.718.628.27.45.36 1.167.808 1.615.36.36.987.09.897-.27-.178-.268-.717-1.076-.268-1.345.36-.18.538.18.807.538.27.36.628 1.706.897 2.154.09.718 1.346.808 1.256.27-.09-.54-1.166-2.424-1.705-3.142-.45-.807-.718-.717-1.346-.807-.718-.18-.987-.807-1.615-1.704-.718-.898-.718-1.257-.63-1.885.18-.717.81-.807 1.078-.178zm-9.063-4.668c.45-.898.27-1.167.27-1.526 0-.36.18-.808.27-.898.09-.27.538-2.154.897-2.603.27-.27 2.154-1.437 3.23-1.975-.448-.36-.986-.628-1.435-.987-1.077.897-3.32 2.602-3.86 4.128-.807 2.333-.807 3.5-1.166 5.654-.36 2.243-.987 4.128-1.256 4.936-.27.628.718.18.897-.18.09-.36.54-.718.54-1.077.09-.45.358-.808.717-1.437.45-.628-.09-1.077.18-1.795.09-.807.358-1.346.717-2.243zM39.757 3.41c3.68.54 7.27 1.795 10.59 3.59-.718.18-1.615.628-1.795.808-.806.628-1.524.628-2.153.628-.807 0-2.064-.36-2.87 1.167-.63 1.525-1.258 3.948-1.437 5.564-.09 1.346-.898 2.96-.54 3.05.45.09 1.078-.986 1.347-2.063.27-.628.54-1.526.808-1.885.09-.45.808-1.078.808-.18 0 .897-.628 1.795-.987 2.96-.36 1.168-.36 1.796-.898 2.245-.807.718-.897 1.436-.36 1.256.54-.178 1.168 0 .9.36-.27.54-.81.808-.54 1.077.27.18 1.077.09 1.167-.45.09-.537.09-1.524.36-1.793.268-.36.627 0 .537.538-.27.718.54.36.27 1.256 0 .27-.63.898-.54 1.167 0 .27.81.808-.896.898-.54 0-2.693-.63-3.32-.988-.81-.448-1.437-1.166-2.065-1.436-.627-.27-2.063-.63-2.332-.808-.36-.27-.63-.628-.63-.898 0-.36-.806-1.166-1.345-1.884-.448-.808-1.256-1.795-.987-3.5.27-1.795.27-4.577-.36-5.475-.807-.807-2.69-2.064-3.05-2.87-.45-.81-1.436-1.258-2.154-1.258-.36 0-.09 2.962-.09 3.68 0 .807.27 1.346.54 1.436.268.18.627.807.627 1.435-.09.63-.81.36-.63 1.436.09.63.45.45.72.45.268 0 .447 1.166.268 1.345-.27.09-.54.18-.36.627.09.36.27 1.347.63 1.347.448 0 .717-.63.717-.988-.09-.36.09-4.128.18-4.756.18-.628-.18-1.256-.63-1.795-.358-.538-1.434-1.167-1.255-1.795.09-.628.27-1.436.538-1.346.36.27.36 1.077.27 1.436.09.18 2.423 1.795 2.87 2.423.45.54.45 3.23.45 3.68-.18.448-.718.897-.807.448-.09-.717.36-1.883-.358-1.883-.45 0-.718.807-.54 1.884.09 1.168.36 3.68.63 3.95.27.18.627.36.807.718.09.36.358 1.077.896 1.167.63.09 1.167.27.718.538-.628.36-1.525.808-1.884.808-1.167.09-2.064.988-2.693 1.347-.807.538-1.346 1.705-1.705 2.602-.09.09-.27.987-.807 1.525-.63.628-1.347.987-1.795 1.167-.36.27-.898.807-.09.628.718-.27 2.154-.897 2.333-.09.09.628-1.166.628-1.705.718-.36.18-1.436.628-.897 1.167.27.45 1.257-.54 1.975-.54.718 0 1.616.45 2.244.54.627.18 1.973.18 2.422 0 .538-.09 2.333-1.526 3.41-1.436.718.178 1.526.807 2.154 1.076.897.36 1.705.897 3.59.897 1.974 0 3.23-.718 3.41-.27.09.54-.27.54-.27 1.078 0 .36.09.72-.18.988-.268.27-.896 0-1.165-.27-.18-.09-.448-.448-.717-.448-.27 0-1.257 0-1.167.18.09.27.36.448.987.448.45 0 1.436 1.167 1.705 1.257.27.09 1.077.718.898.987-.18.27-.27.27-.54.18-.358-.18-.358-.54-.807-.45-.36 0-.718.72-1.077.81-.54.268-1.526.268-2.065.178-.628-.27-1.166-.718-1.615-1.077-.45-.538-.718-1.256-1.256-2.064-.54-.898-1.257-1.796-1.705-1.616-.36 0-.63.987-.45 1.794.09.898.45 1.347.36 1.795-.27.18-.808.718-.808 1.436-.09.807.54.448.54.807 0 .45-.09 1.077-.36.987-.27-.18-.898-.36-.898.18 0 .538.27.448.628.538.36.09.27.628.36.897.18.27.18.538.538.628.538.27.628-.36 1.166-.18.63.09.63.18 1.077.36.45.09 1.077 0 1.257-.27.27-.27.09-.897-.18-1.167-.09-.268-.36-.896 0-.896.54-.09.63.36.808.628.09.27.45.808.628 1.077.18.268.54.268.808.627.36.27.36.54.538.808.09.36.898.45 1.077.718.18.36.18.897.54 1.436.448.447.807.896.448 1.255-.448.54-1.435-.628-2.064-1.436-.718-.63-1.436-1.616-1.974-1.616s-.538.538-.27 1.525c.27 1.076.45 1.525.54 1.705.18 0 .358-.18.538 0 .09.09.628 1.166 1.256 1.525.628.36 1.436.808 2.064.54.628-.27.36-.81.54-.9.088-.178.896-.358 1.255-.358.27 0 .36-1.166.36-1.436s-.36-.628-.27-.897c.09-.27.45-.63.45-.81 0-.088 0-.986.268-1.524.27-.63.63-1.795.54-2.872-.18-.54-.18-.987.09-1.795.268-.72.358-.988.268-1.616-.18-.718-.27-1.077-.27-1.436 0-.36-.537-.808-.358-1.436.09-.27.36-1.167.36-1.705 0-1.077 0-1.526-.27-2.064-.27-.63-.808-1.257-1.077-1.347-.628-.18-.45-.538-.718-.807-.27-.09-.54-.54-.09-.63.36-.09.628 0 1.077-.09.54-.18.54-.807.808-.807.36 0 1.256.09 1.166.36-.09.268-.27 1.076.808.358.36-.09.45-.358.808-.09.45.27.18.54-.09.81-.27.09-.987.358-.987.448 0 .18-.18.538.27.538.448 0 .986-.36 1.076-.538.18-.09.36-.45.54-.45.448 0 .27.36.897.27.628-.18.897-.45 1.167-1.615.27-1.167.628-3.41.807-4.757.09-1.435.27-2.333.27-2.512 0-.45.18-.808.36-.988.09-.09.628-1.166.897-1.346.27-.27.897-.18.628.45-.27.627-.718.896-.718 1.435-.18.45.27 1.077.09 1.436-.09.36-.898.45-.808.988.18.628.268 2.064.268 2.513 0 .36-.628.45-.538.988.18.538.27.897 0 1.256-.27.36-.45 1.167-.628 1.436 0 .27-.09 1.705-.36 1.795-.538.27-1.166 0-1.525.27-.27.27-.45.717-.808.717-.36 0-.63.18-.898.45-.36.09-.538.896-.09.627.45-.27 1.346-.898 1.795-.898.36 0 .718 0 .987-.18.27-.09.898-.36 1.257-.628.45-.18.54-.897.54-.987 0-.18.807 0 .807.27 0 .268.27 1.256.09 1.525-.09.36-.63.807-.63.807s-.986.358-.896.717c0 .36.898.09 1.257 0 .54-.09 1.167-.628 1.257-.538.18.178-.45.896-.18 1.704.09.808 1.526.898 2.064.628.45-.09.45-.36.718-.448.18-.18.898-.18 1.257 0 .45.09.987.18.987.448 0 .27-.718.45-.538.808.09.36.36.36.807.27.448 0 .986.09 1.525.268.45.09 2.333.63 3.05.898.54.09.9.718.9 1.795 0 .988-.09 2.155-.36 2.155-.54 0-.54-1.257-.898-2.064-.36-.807-1.256-1.256-1.436-1.166-.088.27-.358.538.18 1.077.45.54.72.898.72 1.257 0 .36 0 .808.178.898 0 .18.45.628.36.897-.18.54-1.167.36-1.437.09-.268-.09-.088-1.975-.358-2.423-.18-.36-.897-1.796-1.436-2.065-.628-.18-1.256 0-.987.628.268.718.358 1.436.807 1.705.36.27.718.808.718.808l-.09.36s0 1.076.09 1.345c.09.36.538.45.628.72 0 .268.36 1.345.808 1.794.36.538.27.807.808.807.45 0 .63-.358.718-.896 0-.36 1.257-.45 2.154-.45-1.077 6.552-4.128 12.565-8.884 17.322-6.013 6.102-14 9.423-22.616 9.423-8.525 0-16.513-3.322-22.525-9.424-6.103-6.013-9.423-14-9.423-22.526 0-8.615 3.32-16.603 9.333-22.615.45-.45.897-.808 1.346-1.167.63 0 1.347.18 1.616.36.27.807.898 1.166 1.526.896.628-.27 1.167-.09 1.436.54.27.627.628.986.538 1.614-.18 1.167-1.166 4.846-.538 7.36.36 1.256.27 1.794 1.705 3.59.718.896 2.154 2.243 2.423 2.512.09.27.27.718.45.628.358-.18 0-1.167-.45-1.795-.538-.538-2.96-2.244-3.23-4.487-.27-2.333.18-3.77.358-4.398.27-.628.27-1.705.27-2.064 0 0 0-.807.36-.628.447.09.537 1.257.537 1.795 0 .36.18 1.257.18 1.257s.36.898.36 1.167c0 .27-.36 1.167-.27 1.526.09.36.628.718.898 1.077.27.27-.09.718.18 1.077.18.448.986 1.615 1.525 1.705.45.178 1.884.627 2.154.358.27-.18.897-.808-.09-1.257-1.077-.358-2.603-.896-2.962-2.242-.448-1.346-.27-4.308-2.064-7.898s-2.96-3.23-3.588-3.5c-.36 0-1.167-.36-1.795-.448.897-.718 1.884-1.436 2.87-2.065.36.54 1.078 1.436 1.258 1.436.18 0 .45-.807.718-.807.538.09.628.987.808 1.436.09.36.45.717.718.987.45.358 1.167 3.23 1.257 4.037.18.718.897 6.103 1.346 6.64.63.9 1.257.9.898-.537-.538-1.616-.628-5.295-.36-6.552.27-1.256-.268-3.59-.537-3.948-.268-.45-.178-1.167.09-1.257.18-.18 1.078.45 1.167.988.18.54.27 3.86.45 4.398.09.45.448.718.627 1.077.18.538 0 1.077.18 1.436.18.36 1.077 1.975 1.436 2.334.36.54.897.628 1.077.27.09-.36-1.436-1.975-1.795-3.86-.27-1.166-.808-2.064-.808-2.87-.27-.36-.18-.63-.27-.9-.09-.268 0-2.153-.268-2.6-.27-.45-1.795-1.617-2.064-1.527-.718.45-1.616-.54-1.975-.718-.18-.18-.808-.63-1.346-.988 1.257-.54 2.424-1.077 3.68-1.526-.09.628-.09 1.346.18 1.795.27.72.538 1.616 1.077.72.27-.81.36-2.155.538-3.052.898-.27 1.885-.54 2.782-.718.18.36.36.718.54.807.178.09.807 1.077 1.345 1.257.628.09 1.436.27 1.974.27.898.09 1.526.986 1.616 1.614.628 1.706-.628 3.77-.628 3.77s-.27.538-.18 1.705c.18 1.166 0 1.795.628 1.795.45 0 .45-2.244.898-2.962.18-.808.36-1.525.36-1.705 0-.627 0-3.05-.18-3.41-.09-.448-.63-1.256-1.526-1.345-.988-.09-2.334-.36-2.154-.988 0-.27.27-.448.538-.538.718-.18 1.616-.18 2.513-.18h.54c.358.18.717.717.897 1.435.09 1.077 0 3.41 0 3.77 0 .628.718-.18.897 0 .36.36-.36 1.705-.538 2.96-.09 1.258-.628 2.334-.27 2.424.54 0 1.167-2.065 1.975-3.68.72-1.885.63-1.616.63-1.885 0-.09-.09-.897.268-1.167.36-.18 1.795-.36 2.693-.448.63 0 1.078-.45.898-.718-.18-.27-1.256-.36-1.525-.36-.45 0-1.257.27-1.526 0-.18-.09.09-1.794.18-2.602zm-.718 30.423c.36.09 1.167.36 1.795.09.54-.09.898-.36.898-.987 0-.27-.358-.36-.807-.54-.36-.088-.45.18-.36.27 0 .09.36.36 0 .72-.358.447-.986.268-1.255 0-.27-.18 0-.72.18-.81.18-.268-.27-.448-.81 0-.357.36-.178 1.257.36 1.257zM6.55 42.808c.18-.54-.806-.898-.806-1.167 0-.268.36-.717.897-1.166.36-.36 1.527-.718 2.155-.897.45 0 1.526-.27 2.423-.27.27 0 1.077-.18 1.346-.448.27-.27.54 0 .898-.27.36-.27 1.166-.898 1.705-1.436.448-.36-.27-.987-.718-1.167-.36-.09-2.065-.09-3.412.54-.538.268-2.243 1.255-2.692 1.973-.718.718-1.974 1.526-2.064 1.615-.18.27-.808.898-.808.898 0-.09-.27-1.257-.27-1.346-.09-.718-.268-1.167.36-1.705.718-.54 1.705-1.077 1.795-1.167.268-.18 1.614-1.257 1.973-1.436 1.167-.27 2.962-.63 4.846-.36.987.09.987.09.717-.538-.27-.63-.807-.898-1.615-.898-.45 0-1.436-.27-2.064-.27-.45 0-.09-.717.45-.986.537-.27 2.063-.27 2.78.09.808.358 1.078.628 1.975.358.628-.09 1.795-.628 1.885-1.794.18-.898 1.346-1.257 1.795-.898.538.45.538 1.167.448 1.346-.178.09-.717.09-1.076.18-.27 0-.448.27-.36.538.09.54-.268.54-.537.808-.36.09-.628.808-.718.808-.18.09-.54-.18-.81-.18-.268 0-.537.628-.537.628s-.09.808.808.45c.27-.18.808-.27.898-.18.27.27.628.27.987 0 .27-.27.628-.27.898.18.18.18.807.358 1.076.09.27-.27.987.09 1.256 0 .538-.09.36-1.706.36-2.155 0-.54.537-1.436.537-1.795-.09-.538-.09-1.167-.628-1.167-.36 0-.628-.18-1.167-.807-.27-.54-.538-.63-1.076-.898-.718-.27-1.077-1.256-1.347-1.795-.36-.538-.897-.628-1.256-.897-.45-.09-.81-.718-1.257-1.077-.36-.448-.63-.358-1.077-.717-.36-.27-.63-.718-.36-1.077.09-.36.36-.897.72-1.256.358-.36 1.076-1.526 1.165-2.064.09-.54-.627-.898-.896-.54-.27.27-.628 1.078-.987 1.706-.45.63-.718 1.436-1.346 2.064-.717.808-1.256-.18-.717-.807.448-.45 1.346-2.514 2.423-4.22.36-.807-.54-1.435-.898-.897-.45.54-1.077 1.885-1.436 2.423-.27.54-1.256 3.14-1.525 3.5-.27.36-1.167.718-1.436.63-.09-.18-.09-.54 0-.9.09-.268 1.347-2.422 1.706-2.96.36-.54 1.885-3.052 2.243-4.218.448-1.077-.45-1.077-.718-.54-.27.54-.808.988-1.077 1.527-.18.538-1.526 2.692-2.064 3.59-.448.897-1.615 3.23-1.705 3.5-.18.538-1.436.628-1.256-.18.448-1.077 1.704-3.41 2.243-4.038.718-1.077 0-1.975-.45-1.616-.09.18-1.525 2.245-1.794 3.142-.18.987-1.886 4.487-1.886 4.487s1.257.897 1.526.27c.18-.27.27-.54.897-.63.54 0 1.706-.18 2.065-.18.27.18.807.54 1.076.18.27-.448.988-.27 1.167.45 0 .268-.718.807.09 1.435.36.36.987.36 1.167.987.27.987.628.987.897 1.705.09.54.986.54 1.166-.09.09-.538.36-1.615.628-1.615.27 0 1.436.45 1.525.808.18.36-.45.628-.63.987 0 .45-.537 1.257-.358 1.705.09.54-.448.54-.807.36-.27-.09-.718-.18-1.795-.45-.898-.18-2.423.63-2.872.72-.36.178-.718 0-.718-.36s0-.718-.27-.898c-.09-.09-1.345 0-.807-.897.54-1.167-.628-1.436-.808-.808-.448 1.076-.718 1.076-.987.896-.45-.27-.27-.718-.09-1.256.54-1.615-.628-1.256-.897-.808-.178.27-.178 1.795-.358 2.244-.27.538.18.897.18 1.436-.09.628-.63 2.513-.63 2.782-.088.538 1.168.538 1.168-.09 0-.36.36-1.436.897-1.346.27 0 .45-.628.54-.987 0-.268.358-.538.717-.358.27 0 .18.45.18.987-.09.627-.18 1.345-.27 1.525-.09.27-1.436 1.346-1.795 1.615-.27.09-2.065.897-2.334.987 0 .18-.718.27-.718.898s.27 3.41.36 3.86c.09.896 1.255 4.665 1.704 4.934.36.09.45-.54.718-1.077.27-.45-1.167-.898-.538-1.795h.09zm15.617-6.282c-.27-.09-.898-.36-1.167-.09-.36.18-.628.18-.987.18-.27 0-1.167 0-1.885.27-.718.178-2.513.806-3.05 1.165-.45.45-1.078 1.078-1.257 1.168-.27.09.18.538.36.36.27-.09.448-.09.807-.09.36.09 2.334.538 3.59.358 1.256-.27 2.872-.897 2.96-1.256.18-.36.63-.808.81-1.077.268-.09.09-.898-.18-.987zM9.244 45.14c.36-.627.718-.896.718-1.525 0-.628.538-1.077.807-1.436.268-.27 1.076-.898 1.166-1.257.09-.45-.09-.628-.718-.538-.36.09-1.346.897-1.885 1.256-.27.27-1.525 1.796-1.705 2.065-.27.628.45.808 0 1.616-.09.18-.09.63-.27.808-.358.628 0 1.167.72 1.346.358.09 0 .988.358 1.347.36.27.718-.358.897-.987.09-.807-.27-1.884-.18-2.692h.09zm1.346 6.463c.718-.718.897-1.975 1.436-2.782.538-.717.807-.987 1.166-1.256.36-.09.36-.36.27-.808-.18-.18 0-.18.628-.628.628-.36.897-.45 1.166-1.166.27-.45 1.167-2.154.718-2.244-.36-.18-.807-.45-.718-.808 0-.36.63-.36.898-.538.27-.09.09-.27-.18-.45-.36-.178-1.077-.268-1.525-.178-.36.18-.45.538-.9.897-.268.27-.627 0-.986.63-.45.538-.538 1.974-.808 2.512-.27.36-.27.18-.538.628-.18.36.45.27.538.628.27.36.27.63-.09.63-1.166 0-.448.537-.538 1.076-.09.36-1.166 2.423-1.256 2.96-.18.36.27.72.718.9zm6.55 7.18c0-.63-.896-1.078-1.255-1.347-1.436-.718-.718-1.346-1.257-1.795-.538-.358-.987 1.347-.807 1.616.18.18.18.898.54 1.077.358.27.896.808 1.166 1.077.09.09 1.256.808 1.346.987.09 0 .36-.897.27-1.615zm1.616-2.065c.898.36.718 0 .18-.628-.45-.808-2.064-2.872-2.423-3.23-.27-.27-.718-1.706-1.346-1.796-.808-.18-.45.27-1.436-.18-1.076-.358-1.525-.358-1.525 0 0 .45.36.72.09.808-.36.09-.628.27-.808.898-.09.807 1.257.36 1.795.36.54 0 .897.537 1.615.896.63.45.898.718 1.077 1.077.45.36 2.334 1.526 2.782 1.795zm7.36 6.46c-.72-.537-1.616-.806-2.783-1.345-1.166-.538-2.512-.987-2.782-1.166-1.076-.18-1.524.538-1.524.538.09.09 1.615 1.346 2.243 1.436.538.09 3.858 1.796 4.935 2.065.898.27.45-.897-.09-1.526zm.358-3.5c-.718-.268-1.705.36-1.795.63-.27.538.358.987.987 1.256.538.18 1.256.27 1.525-.27.45-.448-.27-1.256-.718-1.615zm14 4.49c-1.436-.09-4.756.268-5.295.268-.36 0-.988-.628-1.257-.718-.538-.27-.808-.54-1.705-.628-.718-.18-1.256-.45-1.256-.54 0-.178.09-.537.27-.806.09-.27-.18-.63-.27-.808-.09-.09-.27-.987-.27-1.257 0-.54.45-1.257.63-1.795.268-.54.537-.54.806-.808.27-.27 1.167-.36 1.077-.718-.18-.27-.45-.63-.808-.898-.448-.27-1.076 0-1.705.18-.538.18-1.436 1.076-1.525 1.345-.18.27-.36.987-.63 1.526-.178.538 0 1.256.36 2.154.09.27.09.807.27 1.166.09.45.538.718.718.898.27.27.27.63.27.898 0 .27-.27 1.616 0 1.975.268.36 1.435.36 1.255.09-.09-.09.18-1.616.987-1.616 1.347 0 1.347 1.436 1.975 1.615.18 0 1.166 0 3.14-.09 2.603-.27 5.026-.448 5.475-.807.54-.36-1.884-.718-2.513-.628zm-8.615-11.04c.268 0 .807.27.986.628.27.36.628.808.808.898.36.27.628.538 1.436.808.718.18 2.423.18 2.96.18.63 0 .09-.45-.268-.63-.45 0-2.244-.268-2.603-.538-.54-.18-.808-.628-.898-.807-.09-.36-.538-.36-.808-.718-.09-.36-.18-.988-.36-1.347 0-.45-.447-.45-.717-.18-.448.27-.718.36-.987.54-.18.268 0 1.165.45 1.165zm13.37 7.54c.54-.18 1.437-.45 1.706-.63.18-.09.45-.628.718-.897.27-.268.628-.268 1.077-.358.27-.09.27-.09.27-.27-.18-.09-.27-.358-.45-.448-.088-.18 0-.808 0-1.077 0-.27-.986-.36-.896.09 0 .36-.27 1.077-.45 1.346-.268.27-.537.09-.986.36-.36.09-.718.538-1.346.627-.45 0-.987.09-1.077 0-.09-.09-.09-.987-.18-1.346-.09-.45-.538-.987-.718-1.077-.09-.18 0-.18-.27-.538-.09-.36-.448-.63-.627-.54-.09.18-.27.27-.538.27-.09.09-.54-.27-.808-.54-.09-.178-.808-.358-1.077-.358-.27 0 0 .628.27.808.09.09.358.628.448.718.18.18.538.27.987.27.18 0 .628.268.628.627 0 .45-.628.45-.807.54-.27.178-.54.268-.808.178-.18-.18-.09-.718-.45-1.077-.178-.27-1.076-.628-1.794-.897-.806-.18-2.063.178-2.512.358-.36.27-1.256.628-1.525.628-.27 0-.54-.09-.898 0-.36 0-.897 1.077-.987 1.346-.18.27-.538.897 0 .987.36.18 1.167-.09 1.526-.27.36-.09 1.167-.45 1.525-.628.358 0 .897-.18 1.435-.36.54-.18.63-.268.898-.538.27-.27.628 0 .897.18.27.09.628.09 1.077.18.36 0 .36.27.18.448-.27.27-.54.27-.898.36-.36 0-.72.268-.988.358-.45.18-1.167.45-1.256.538-.45.09-1.616.808-1.705.898-.18.18-.538.18-.807.27-.27.09-.36.538 0 .717.45.27 1.166.27 1.795.18.628 0 2.064-.27 3.14-.18.988 0 2.334 0 2.783-.18.54-.27.898-.27 1.437-.27.538.09.718.09.987 0 .18-.268.808-.537 1.077-.806zm4.757-4.847c-.27.27-.36.63-.36.988 0 .448.36.718.9.448.537-.18.268-.538.896-.807.27-.09.09-1.258.09-1.527 0-.27-.27-.897-.36-1.167-.18-.27-.538-.36-.538-.628 0-.18-.09-.538-.538-.538-.36 0-1.885.18-2.513.36-.538.268-.808.717-.897.806-.18.27 0 .54.36.27.358-.18 1.973-.18 2.063-.18.09.18.538.54.628.808 0 0 .538.897.27 1.167zm-3.5.63c-.45-.18-.897-.27-.987-.9-.18-.627-.18-.896-.808-.896-.36 0-.987 0-.987.897 0 .36.18.9.36.988.09.18.627.808 1.076.898.18 0 .898-.09 1.257-.09.45 0 .63-.718.18-.897h-.09zm9.962-2.424c-.81.09-.36-.808-.36-1.077-.09-.27-.718-.27-.808-.72 0-.268-.18-.717-.45-.986-.088-.09-.537-.36-.537-.63-.09-.268.27-.268.27-.627.18-.36 0-.897-.09-1.256 0-.448-.18-1.794.09-1.974.358-.09.448.27.538.63.18.447.807.537.807.268 0-.27 0-.898-.09-1.436-.18-.45-1.256-.987-1.435-1.077-.27-.178-.36-.178-.63-.358-.268-.18-2.242-.18-2.96-.27-.898-.268-1.616-.717-1.974-.807-.358-.18-.27-.27-.807.09-.36.718-.09.718.45 1.077.447.538.358 1.166.358 1.525 0 .36.63.54.898.808.27.18.36.628.808.718.36.18.628.18.987.54.45.358.27.896.538 1.434.36.63.9.36.988.898.18.27-.09.628-.09.897 0 .27.27 1.257.27 2.154 0 .808-.808 1.526-.808 2.064 0 .54.18.36.45.898.178.538-1.078.628-1.257.807-.09.27-.808.898-.988.988-.27.18-1.166 1.346-1.166 1.705 0 .897-3.68.987-3.68 3.05v.27c.18-.09 1.615-.628 2.78-1.077 1.168-.627 2.963-1.435 2.873-1.704-.538-.897 0-1.705.18-1.974.448-.27 1.974-1.167 2.153-1.257.63-.538.988-1.166 1.077-1.436.18-.27.18-.718.27-.988.18-.27 1.166-.27 1.076.27 0 .36.628.628.897.807.27.268.718-.63.897-.72.36-.537-.18-1.435-1.525-1.524zm5.742-4.577c-.27-.63-.718-.45-.628-1.078 0-.27.36-1.077.27-1.346-.09-.27-.27-.27-.63-.718-.268-.54-.448-1.167-.537-1.436-.18-.27-.36-.808-.54-.808-.09 0-.178-.09-.358-.27-.09-.09-.54-.627-1.078-.358-.09.18-.36.27-.27.718.18.18.72.808.988 1.256.27.36.36 1.795.09 2.513-.09.54.45.718.45 1.167-.09.538-.54.538-.54.807 0 .27.54.988 0 1.526-.27.27 0 1.436.18 1.436.538 0 1.166-.63 1.346-1.078.09-.628 1.346-1.974 1.346-2.333h-.09zm-14.09-18.04c.45 0 .808-.27.988-.448.09-.09.448-.45 1.077-.36.807.18 1.795.63 1.974.808.27.09.63.36.63.898 0 .448-.54.448-.898.718-.27.27-.54.36-.898.36-.36 0-1.077-.36-1.436-.18-.36.09-.717.538-.36.717.27.27.81.18 1.168.18.36 0 .27.897-.27.897-.538.09-.627.808-.268.808.628-.18.807.18.538.448-.27.18-.808.27-.897.36-.27.18.178.538.537.538.27 0 .898-.27.987-.36.36-.268.808-.09 1.167.09.27.27 1.078-.448 1.796-.628.808-.09 1.436-.36 1.705-.36.27 0 .27.81.54.81.09.09.987.09 1.525.09.54.09 1.257.537 1.705.358.45-.09.09-.628 0-.898 0-.09 0-.36-.18-.628-.09-.09-.538-.36-.538-.807 0-.18.45-1.256-.448-1.525-.898-.27-1.347-.09-1.347-.36 0-.18.18-.627-.09-.627s-2.422-.18-2.692-.27c-.628-.18-1.436-1.435-2.333-1.705-.897-.27-1.526-.538-2.333-.09-.72.36-1.168.36-1.527.36-.27.27 0 .987.18.807zm.09 7.27c.54.09 1.167.09 1.436.538.27.27-.18.538-.538.538-.36 0-.628-.27-.898-.448-.27-.09-.628.448-.538.628.18.27.538.27.808.45.36.088 1.256-.18 1.525 0 .27.088.18.537 0 .717-.09.27.18.807.45.897.178.18-1.886 0-1.975.27-.18.627.628.627.987.627.537-.09.268 0 1.973-.09 2.333-.09 3.68.898 4.398 1.257.718.45 1.257 1.974 1.347 2.962 0 1.166-.45 1.615-.63 2.423-.088.986.54 3.23.63 3.678.18.54.807.18.807 0 0-.27 0-.538.27-.807.27-.27.36-.27.09-.807-.27-.45-.36-.987-.36-1.795 0-.897.27-.718.45-2.333.358-1.526-.45-3.052-.81-3.95-.447-.897-2.332-1.704-2.78-1.884-.36-.268-.72-.537-.808-.806-.18-.27-.54-.09-.808-.36-.27-.27.36-.538.628-.628.54-.27.987-.807 1.167-.718.36.27-.18.808.09.898.448.18.807-.36 1.076-.18.27.18.717.63.09.718-.63.27.18.54.448.54.09 0 .897-.54 1.077-.27.27.27-.18.807.27.897.18 0 .358.09.897.09.448.18.27.54.538.54.27 0 .897-.09 1.436.18.628.268 1.346.986 1.615 1.255.45.45.988-.09 1.078-.36.09-.268-.09-.627-.27-.627-.268.09-.627.18-.896.09-.54-.27-.63-.898-.808-1.167-.09-.268-.987-1.525-1.257-1.704-.36-.09-1.256-1.167-2.153-1.615-1.077-.538-1.795-.448-2.962-.27-1.167.09-2.96 1.258-3.32 1.437-.27 0-.718-.45-1.077-.718-.36-.27-.63-.09-.988-.27-.448-.09-.538-.18-1.076-.45-.448-.268-.717-.178-1.166 0-.36.09 0 .45.538.63zm-4.487 8.525c0 .54.718.987.987.898.27 0 .27-.54.09-.898-.09-.538.18-.808.54-.897.447 0 .447.448.716 1.256.18.898.898 1.257 1.257 1.257.36 0 .718 0 1.526.18.54.09 1.167.27 1.077.628-.09.36.18 1.077.45.898.268-.09.627-.63.538-.898-.09-.27-.988-1.166-1.795-1.525-.808-.36-1.167-.36-1.705-1.077-.45-.718-.18-1.795-.09-2.693 0-.718-.27-1.166-.808-.987-.538.09-.718.27-.718.808 0 .36-.27.45-.54.808-.358.27-.807.717-1.166.987-.36.178-.36.717-.36 1.255zm-4.128 1.077c0 .27.36.718.45.808.178.18-.09 1.077.627.807.36 0 .45.27.538.54.27.358.18.627.18.807-.18.36.36.448.628.718.538.448 1.436.628 2.064.628.628 0 1.705 0 2.333-.36.45-.268 1.526-.538 1.795-.627.27-.18.898.09 1.167 0 .268-.18.09-.54 0-.808-.27-.27-.72-.27-.988-.27-.18.09-.45 0-.808-.09-.45-.18-.628-.268-1.167-.18-.538.18-1.974.18-2.602-.088-.628-.27-.987-1.077-1.167-1.436-.27-.358-.718.09-1.166 0-.27-.09-.808-.538-1.347-.627-.807-.27-.628.09-.538.18zm-6.192-5.205c.27.628.897.27 1.166.45.27 0 .27.178.54.178s.36-.09.807.27c.45.538.988 0 .36-.63-.45-.448-.18-1.794-.808-1.794-.27 0-.63.27-.9.36-.268.18-.358-.09-1.076 0-.628.18-.18.628-.09 1.167zM28 33.923c.27.09 1.436.36 2.064.09.36-.09.718-.718.718-1.077 0-.27-.09-.54-.45-.718-.447-.09-.447.36-.268.538.09.27.27.808-.628.898-.808 0-.808-.628-.628-.987.18-.63-.18-.63-.808-.09-.36.45-.27.987 0 1.346zm-1.167.808c.27.09.898.27 1.795.36.54.18 1.436 0 1.705 0 .27 0 .718-.18.718.36.18.627-.627.447-.896.447-.36 0-1.257 0-1.795-.18-.45 0-1.796-.268-2.245-.627-.27-.27-.538-.628-1.077-.808-.538-.09-.897.808-.538.897.27.18.628.448.27.807-.54.54-.27 1.257 0 1.526.268.27.807.987 1.076 1.256.18.268.628.18.808.268.18.18.808.54 1.077.898.09.27.54-.09.898-.36.27-.268.718.27.54.54-.18.27-.27.27-.54.897-.27.628-.718.538-1.256.538-.54 0-.45.36-.45.36.09 0 .27.54.27.628 0 .18-.36.36-.897.36-.45 0-.898-.09-1.257-.18-.27-.18-.09.36.09.628.27.27.54.898 1.167.987.27.18.808 0 .897-.09.45-.27 1.077-.538 1.077-.897 0-.45-.27-.628.268-1.077.36-.18.718.268.988.538.27.18.807 0 1.166-.36.36-.27.36-1.345.27-1.704-.18-.36-.54-.36-.898-.63-.45-.358.27-.896.27-.896s1.256-.628 1.076-1.256c-.09-.808.18-1.436.27-1.795.18-.27-.36-.27 0-.898.27-.54 1.076-1.078 1.166-1.616 0-.45-.36-.718-.718-.898-.45-.09-.45.45-.538.898-.18.538-.628.808-1.167.897H28.09c-.36-.088-.54-.088-.987-.358-.54-.18-.63.45-.27.54zm-2.692-3.14c.09.628.988.897 1.437.897.18 0 .628-.718.897-1.077.18-.448.45-.987.18-1.166-.18-.27-.987-.63-1.616 0-.628.538-1.076.718-.897 1.346zm-.896 15.346c-.27.09-.808.45-1.706.45-.628 0-1.794-.09-1.884.268-.18.36-.36.628-.27.897.09.27-.27.9-.807.54-.36-.36-.27-1.257-.09-1.705 0-.36.628-2.693.898-2.962.27-.27.897-1.526 1.346-1.795.45-.27.988-.09 1.078.18.09.18.18 1.256 0 1.346-.09.27-.36 0-.808.27-.18.268-.718 1.076-.718 1.345 0 .268-.18.358.36.358.537-.09.627-.27.807-.09.088 0 .627.18.986 0 .36-.18 1.167-.18 1.077-1.346 0-1.166-.18-1.525.09-2.064.09-.36.538-.897 0-1.436-.54-.448-.898-1.077-1.526-1.077-1.167-.18-.808.45-1.077.63-.27.088-.897.358-1.346.268-.54-.18-1.167-.18-1.436.18-.45.538-.54.807-.628 1.166 0 .448-.45 1.076-.718 1.435-.36.27-.36.538-.45.987-.178.54-.268 1.346-.268 1.615-.18.27.45 2.244.718 2.962.18.627.538 1.884.807 2.153.27.18.538.18.807 0 .36-.09.718-.27.898.18.27.18.09 1.345.09 1.615s.358.807.538.897c.27.18.09.45.27.718.09.18.268.36.627.45.27.178.628.268.808.537.09.27.09.54.45.808.447.18.896.628.896.897 0 .27-.36.54-.897.63-.45.088-1.436.268-1.526.537-.09.27-.268.54.09.628.45.09 1.616.09 2.334-.09.808-.27 1.705-.538 1.885-.807.088-.18.447-.628.717-.808.27-.09.897-.27 1.256-.36.18 0 .54 0 .628-.09.18-.178.54-.806.9-.896.178-.36.447-.45.806-.72.36-.09.54-.717.63-.896.268-.27.896-.18.896-.63 0-.537-.897-.447-1.346-.447-.54 0-1.077.27-1.705.538-.538.27-.897.45-1.345.628-.36.27-.718.54-.808.808-.18.27-.18.54-.45.81-.268.088-.806.268-.986 0-.268-.27-.268-.72-.537-.81-.27-.09-.54-.268-.63-.358-.268-.27-.268-.45-.358-.538-.18 0-.448 0-.538-.27-.18-.36-.09-.807-.36-.987-.448-.45-.538-1.166-.807-1.346-.27-.09-.807-.268-.807-.448 0-.448.18-.807.538-.807.36-.18.27-.808.36-.988.18-.27.987-.987 1.615-1.076.45-.18.898-.358.988-.27.09.09-.09.72.09.81.18 0 1.704.358 2.153.268.36-.18 1.077-.807 1.616-.807.538 0 .628.18.538.54-.27.268-.897.627-1.167.896-.27.36-.628.808-.628.808s-.36-.18-.808-.18c-.36 0-1.435.18-1.705.898-.36.808-.18 1.256-.09 1.526 0 .27.27.987.27 1.077.09.09.628.09.718 0 .18-.09.538-.718.448-.898 0-.27-.27-1.346.09-1.615.36-.18.898-.09.898.18-.09.27 0 .627.27.538.268-.18.807-.27.986-.27.27 0 .897.27 1.167.27 1.076-.27 1.165-.718 1.345-.898.27-.807.897-1.615 1.615-1.346.808.27 1.077-.18 1.436-.36.27-.09.54 0 .718.27.27.27.718 1.257 1.077 1.975.36.63.898 1.078 1.168 1.257.27.18.807.18.897.36.09.09.628.538.987.627.45 0 1.885-.18 1.975-.18.09 0 .807.18.987.63.45.268.45.268.718.448.27.18.628.45.628 0 0-.36-.18-1.257-.538-1.616-.36-.448-.63-.807-.898-.807-.36 0-.987-.27-1.167-.27-.628-.09-.987-.45-1.256-.63-.358-.268-.178-.896-.178-1.165 0-.36-.09-.988-.27-1.526-.36-1.078-.36-1.437-.448-1.975-.18-.63 0-1.347-.45-1.526-.358-.09-1.256-.36-1.704-.27-.718 0-.987.18-1.346 0-.36-.09-.63-.36-1.257-.36-.628.18-.808 0-1.077-.09-.18-.178-.448-.178-.897 0-.18.09-.45.36-.27.45.27.18.72 0 .808.27.18.268.27.537.54.807s.628.538.538.628c-.18.09-.538.27-.718.27-.09 0-.628-.36-.987-.63-.538-.268-.897-.717-1.256-.538-.27.09-.27.808-.54.898-.268.27-.537.36-.806.09-.27-.18-.358-.988-.628-1.167-.09-.09-.718-.36-1.346 0-.718.27-1.077.45-1.346.45-.36.088-.897.088-1.256.268zM41.64 7.718c-.807.538-2.063 1.436-3.41 4.846-1.256 3.5-1.435 3.68-1.525 4.398 0 1.076.808 1.166 1.167.538.45-.808.628-1.256 1.166-1.256.36 0 .54.448.45 1.256-.09.718.448.27.807-.27.45-.538.538-2.063.718-2.96 0-.808.27-1.437.27-2.155.09-.718.18-1.525-.18-1.525s-.63.09-.63-.18c0-.448 1.258-1.525 1.617-1.795.718-.36.27-1.256-.45-.897zM69.82 35c0 19.115-15.705 34.82-34.91 34.82C15.615 69.82.09 54.116.09 35 .09 15.705 15.795.09 34.91.09 54.205.09 69.82 15.795 69.82 35zm-1.794 0c0-8.885-3.41-17.14-9.693-23.423C52.05 5.295 43.795 1.885 34.91 1.885c-8.795 0-17.14 3.5-23.333 9.692C5.295 17.86 1.795 26.115 1.795 35c.09 8.795 3.5 17.14 9.782 23.333 6.192 6.282 14.538 9.693 23.333 9.693 8.885 0 17.14-3.41 23.423-9.693C64.526 52.14 68.026 43.795 68.026 35zM34.64 49c.45 0 .81-.808.81-1.167 0-.27-.63-.538-1.078-.807-.45-.27-1.077-.63-1.616.27-.36.627 1.436 1.704 1.885 1.704zm8.616 9.692c-.09-.27-.36-.27-.448 0-.18.18-.898.987-1.436 1.077-.54.268-.27.18-.718.18-.36 0-.987.088-.987.088s-.09.18-.18.27c-.27.09-.538.27-.987.27-.18 0-.45.09-.718.268-.27.09 0 .36.27.36.18 0 .627-.09.897-.09.178 0 .896.09.986 0 .18 0 .36-.18.718-.18.45 0 .628 0 .808-.09.27-.18.628-.27 1.076-.45.36-.178.898-.088 1.077-.178.18-.18.18-.27.09-.45-.18-.268-.27-.896-.36-1.076h-.09zM203.628 65.872V63H80.23v2.872M80.68 19.833c0-.897 1.615-.628 1.615-.628h9.602s5.924.18 8.167 2.782c4.487 4.936 2.154 10.32.628 11.667-1.166 1.077-3.05 1.615-3.05 1.615s2.78.717 4.755 2.422c2.244 2.064 4.936 9.154 2.065 13.91-2.693 4.308-6.193 5.026-10.59 4.847-3.95-.18-3.23-.63-7.27-.54-3.41.09-5.205.18-5.205.18s-1.346.18-1.256-.718c.18-.898.898-.808 2.155-1.526.718-.538 1.346-1.974 1.526-3.23.27-1.706.36-4.04.36-4.04v-20.19s-.09-.36-.09-.72c0-2.512-1.975-4.666-2.693-4.935-.628-.268-.628-.448-.718-.897zm8.346 2.962v10.5s0 .538.18.808c.268.448.807.538.807.538h1.615s.987 0 1.795-.268c.54-.09 2.064-1.077 3.05-2.244.72-.807 1.348-2.692 1.348-4.038 0-3.052-1.076-4.308-2.512-5.026-2.064-.987-4.577-.987-4.577-.987h-.986s-.45 0-.63.18c-.088.27-.088.538-.088.538zm0 14.987v14.27c0 .358.538.717.897.897.718.268 1.346.358 1.346.358h2.96s2.244.09 3.95-.987c1.974-1.346 2.602-4.307 2.512-6.55-.09-3.052-1.256-4.667-2.96-6.283-1.976-1.795-6.283-1.705-6.283-1.705h-2.424zm15.525 17.68c.18-1.167.988-.18 2.514-1.885 1.167-1.256 1.885-2.423 2.692-4.04.36-.806.898-2.332.898-2.332l8.705-23.96s.09-.81.09-1.437c0-.54-.09-1.077-.09-1.077s.448-.09.717-.09l.808-.268 3.86-1.257 10.678 26.654s1.705 4.666 3.59 6.91c.718.897 1.525 1.615 2.423 1.615 1.526.09.718 1.705-.27 1.705-.807 0-3.77-.09-6.192 0-2.782 0-7.987.18-7.987.18s-1.077.09-.897-.718c.36-1.077 1.166-.898 1.795-.988 1.615-.36 3.68-1.077 4.038-2.692.27-1.167-.538-3.23-.538-3.23l-3.68-9.065h-10.41l-3.05 8.526s-.36 1.166-.45 1.795c-.09.538-.09 2.513.718 3.41.808.987 2.96 1.256 3.95 1.256.986.09.268 1.616-.54 1.616s-4.038-.09-6.46-.18c-2.245-.09-6.284.18-6.284.18s-.63.27-.63-.628zm13.822-18.847h8.346l-4.397-11.128-3.948 11.128zm21.27-16.692s.986.09 2.243.18c1.346 0 3.32.09 3.32.09h14.18s2.333 0 4.666-.18c1.796-.18 4.488-.36 4.488-.36s-.09 1.975-.538 4.398c-.45 2.514-.808 3.95-.808 3.95s-.18.987-.448 1.077c-.18.18-1.526.628-1.526.628s.27-1.705.27-2.513c-.09-1.166-.45-3.05-1.167-3.59-1.346-.897-2.96-.807-4.217-.897-1.257-.09-3.32 0-3.86.45-.628.358-.538 1.524-.538 1.524v24.14s-.09 3.052 1.346 4.13c1.168.896 3.142 1.435 3.142 1.435s1.436 0 1.077.987c-.18.718-.988.807-.988.807s-5.026-.18-7.45-.18c-3.588 0-6.55.18-7.627.18-1.436.09-1.077-1.706.18-1.795.718-.09 2.602-.27 3.86-1.706 1.345-1.436 1.524-4.398 1.524-4.398V25.756s-.09-1.705-.54-2.243c-.897-.987-3.14-.898-4.935-.718-2.244.18-3.68.987-4.218 2.513-.628 1.525-.898 3.59-1.436 3.77-.448.268-1.704.537-1.704.537s.538-2.423.987-5.294c.27-1.974.718-4.397.718-4.397zm32.037-.27c-1.257-.09-1.526 1.616-.808 1.796.897.178 1.615.088 2.423.986.897 1.077.718 3.41.718 3.41v21.808s0 2.513-.18 3.68c-.27 1.794-.987 2.422-1.974 2.78-.81.36-1.527.45-1.616 1.348-.09.897.807.717.807.717s2.335-.18 5.296-.18c2.962 0 6.103.18 7 .18.987 0 1.526-1.526.18-1.706-1.526-.27-3.052-.538-4.13-1.525-.896-.81-.717-2.873-.717-2.873V37.154h17.14v12.923s0 2.872-1.435 3.32c-1.347.45-2.154.54-3.14.718-.99.18-1.976 2.064-.81 2.064 1.168 0 4.847-.27 7.72-.27 1.704 0 4.486.18 4.845.18.897.09 1.256-.27 1.346-.898.27-.628-.628-.807-1.167-.987-.63-.27-1.257-.45-1.885-1.346-.628-1.078-.45-3.41-.45-3.41V25.935s-.09-2.244.63-3.32c.807-1.257 1.166-1.078 1.884-1.347.896-.27 1.076-1.706.268-1.616-.897.09-3.77.27-5.384.27-2.513-.09-5.206-.18-5.834-.27-1.166 0-1.436 1.795-.538 1.795.897 0 2.513.268 3.23 1.345.808 1.167.808 3.23.72 3.32v7.988h-17.143v-8.167s-.09-2.692 1.166-3.5c.898-.628 1.705-.628 2.692-.808.988-.18 1.616-1.974.54-1.884h-6.552c-2.513 0-3.86 0-4.847-.09zM183.346 8.346c0-1.525.45-2.692 1.436-3.59.808-.807 1.974-1.166 3.23-1.166 1.168 0 2.155.36 3.052 1.077 1.077.897 1.616 2.154 1.616 3.77 0 1.435-.54 2.69-1.436 3.59-.898.717-1.975 1.166-3.14 1.166-2.873 0-4.758-1.975-4.758-4.847zm4.846-3.77c-1.615 0-2.692 1.437-2.692 3.86 0 2.513 1.167 4.04 2.603 4.04 1.615 0 2.692-1.527 2.692-3.95 0-2.513-1.077-3.95-2.603-3.95zM195.372 13.193h4.038v-.718h-.897l-.27-.27v-3.23h1.885l.18.18.18.986h.807V6.91h-.808l-.18.988-.18.18h-1.883v-3.41h2.692l.18.178.18 1.347h.986V3.86h-7v.627l.898.09.27.18v7.448l-.27.27h-.808v.718"/>
    <g>
      <path d="M81.757 3.86v.627l.897.09.18.18v4.756c0 1.077.09 1.885.628 2.603.538.718 1.615 1.077 2.96 1.077 2.604 0 3.68-1.077 3.68-3.59V4.846l.18-.27.808-.09V3.86h-3.14v.627l.896.09.18.27v4.576c0 1.795-.538 2.693-2.064 2.693-1.705 0-2.244-.808-2.244-2.603V4.757l.18-.18.807-.09V3.86h-3.948M93.244 13.193h3.23v-.63l-.897-.178-.18-.18v-6.55l4.847 7.538h1.526V4.846l.27-.27.806-.09V3.86h-3.23v.627l.897.09.27.27v6.012l-4.308-6.642v-.36h-3.23v.63l.896.09.27.18v7.447l-.27.18-.896.18v.628M105 13.193h4.13v-.718h-.99l-.178-.27V4.757l.18-.18.987-.09V3.86H105v.627l.898.09.27.18v7.448l-.27.27H105v.718M111.013 3.86v.627l.898.18 3.142 8.526h1.346l3.05-8.526.898-.18V3.86h-2.96v.627l.717.09.18.18-2.154 6.37-2.335-6.37.18-.18.807-.09V3.86h-3.77M122.052 13.193h7.36V10.68h-.9l-.268 1.525-.18.18h-3.14v-3.59h1.705l.268.18.09.987h.807v-3.23h-.807l-.09.986-.27.18h-1.705v-3.32h2.693l.18.18.18 1.255h.986V3.86h-6.91v.627l.807.09.18.18v7.448l-.18.27h-.808v.718M132.103 3.86h4.128c2.155 0 3.322.807 3.322 2.333 0 1.256-.808 2.064-2.423 2.333.627.18 1.165.45 1.434.897.45.63.54 1.346.808 2.064.27.718.718.898 1.616.898h.18v.718c-.45 0-.898.09-1.347.09-.627 0-1.076-.18-1.435-.45-.718-.538-.897-1.166-1.077-1.794-.45-1.347-.808-1.975-2.154-1.975h-.27v3.14l.27.18.808.09v.718h-3.86v-.718l.81-.09.178-.18V4.758l-.18-.18-.807-.09V3.86zm2.872.717v3.5c.18.09.36.09.448.09 1.436 0 2.154-.628 2.154-1.885 0-1.077-.718-1.705-1.974-1.705h-.628zm8.346 8.167c.898.27 1.796.45 2.603.45 2.244 0 3.68-1.168 3.68-2.873 0-.807-.45-1.525-1.257-2.063-.807-.54-1.525-.718-1.974-.988-.718-.45-1.077-.808-1.077-1.436 0-.808.628-1.347 1.616-1.347.45 0 .72.09.988.18l.18.18.268 1.435h.988V4.04c-.898-.27-1.705-.45-2.603-.45-1.973 0-3.23 1.167-3.23 2.692 0 .718.36 1.346.988 1.885.628.538 1.256.808 1.794 1.077.988.45 1.436.987 1.436 1.705 0 .807-.628 1.345-1.795 1.345-.36 0-.807-.09-1.166-.18l-.18-.18-.18-1.704h-1.076v2.514zM152.475 13.193h4.038v-.718h-.897l-.27-.27V4.757l.27-.18.897-.09V3.86h-4.038v.627l.897.09.18.18v7.448l-.18.27h-.897v.718M158.936 3.86V6.28h.898l.27-1.525.178-.09h1.616v7.538l-.18.27h-.897v.718h4.13v-.718h-.898l-.27-.27V4.667h1.616l.27.09.178 1.525h.988V3.86h-7.898M168.45 3.86v.627l.896.18 2.693 4.846v2.692l-.18.18-.988.09v.718h4.218v-.718l-.987-.09-.18-.18v-3.05l2.603-4.488.808-.18V3.86h-2.962v.627l.808.18.09.18-1.975 3.41-1.884-3.5.09-.18.808-.09V3.86h-3.86"/>
    </g>
  </g>
</svg>
